# xmcd
#
# Track frame offsets: 
#        182
#        11890
#        24220
#        37955
#        51837
#        64937
#        77660
#        91505
#        104932
#        117150
#        129202
#        139977
#        150180
#        159700
#        170527
#        182487
#        193972
#
# Disc length: 2760 seconds
#
# Revision: 0
# Processed by: cddbd v1.4PL0 Copyright (c) Steve Scherf et al.
# Submitted via: ExactAudioCopy v0.90b4
#
DISCID=d90ac611
DTITLE=Little Walter - 16 Greatest Hits
DYEAR=1900
DGENRE=
TTITLE0=My babe
TTITLE1=Juke
TTITLE2=You're so fine
TTITLE3=Blues with a feeling
TTITLE4=Mean old world
TTITLE5=Everything's gonna be alright
TTITLE6=Take me back
TTITLE7=Can't hold much longer
TTITLE8=Last night
TTITLE9=Oh Baby
TTITLE10=Blue midnight
TTITLE11=Hate to see you go
TTITLE12=Nobody but you
TTITLE13=My baby's sweeter
TTITLE14=Mellow down easy
TTITLE15=As long as I have you
TTITLE16=Roller coaster
EXTD=
EXTT0=
EXTT1=
EXTT2=
EXTT3=
EXTT4=
EXTT5=
EXTT6=
EXTT7=
EXTT8=
EXTT9=
EXTT10=
EXTT11=
EXTT12=
EXTT13=
EXTT14=
EXTT15=
EXTT16=
PLAYORDER=
